<svg width="25" height="25" viewBox="0 0 25 25" fill="none" xmlns="http://www.w3.org/2000/svg">
<path d="M17.5 11.5V8.5C17.5 5.73858 15.2614 3.5 12.5 3.5C9.73858 3.5 7.5 5.73858 7.5 8.5V11.5M8.3 21.5H16.7C18.3802 21.5 19.2202 21.5 19.862 21.173C20.4265 20.8854 20.8854 20.4265 21.173 19.862C21.5 19.2202 21.5 18.3802 21.5 16.7V16.3C21.5 14.6198 21.5 13.7798 21.173 13.138C20.8854 12.5735 20.4265 12.1146 19.862 11.827C19.2202 11.5 18.3802 11.5 16.7 11.5H8.3C6.61984 11.5 5.77976 11.5 5.13803 11.827C4.57354 12.1146 4.1146 12.5735 3.82698 13.138C3.5 13.7798 3.5 14.6198 3.5 16.3V16.7C3.5 18.3802 3.5 19.2202 3.82698 19.862C4.1146 20.4265 4.57354 20.8854 5.13803 21.173C5.77976 21.5 6.61984 21.5 8.3 21.5Z" stroke="#3CBC81" stroke-width="2" stroke-linecap="round" stroke-linejoin="round"/>
</svg>
