<svg width="25" height="25" viewBox="0 0 25 25" fill="none" xmlns="http://www.w3.org/2000/svg">
<g opacity="0.8">
<path d="M20.5 21.5C20.5 20.1044 20.5 19.4067 20.3278 18.8389C19.94 17.5605 18.9395 16.56 17.6611 16.1722C17.0933 16 16.3956 16 15 16H10C8.60444 16 7.90665 16 7.33886 16.1722C6.06045 16.56 5.06004 17.5605 4.67224 18.8389C4.5 19.4067 4.5 20.1044 4.5 21.5M17 8C17 10.4853 14.9853 12.5 12.5 12.5C10.0147 12.5 8 10.4853 8 8C8 5.51472 10.0147 3.5 12.5 3.5C14.9853 3.5 17 5.51472 17 8Z" stroke="#3CBC81" stroke-width="2" stroke-linecap="round" stroke-linejoin="round"/>
</g>
</svg>
