<svg width="97" height="85" viewBox="0 0 97 85" fill="none" xmlns="http://www.w3.org/2000/svg">
<path d="M89 0H8C3.58172 0 0 3.58172 0 8V77C0 81.4183 3.58172 85 8 85H89C93.4183 85 97 81.4183 97 77V8C97 3.58172 93.4183 0 89 0Z" fill="#D9D9D9"/>
<path d="M60.1905 38.4285V33.848C60.1905 33.0413 59.8707 32.2675 59.3011 31.6962C58.7316 31.1249 57.9587 30.8028 57.152 30.8003L52.5715 30.7866M60.1905 47.5714V52.1428C60.1905 52.9511 59.8694 53.7263 59.2979 54.2978C58.7264 54.8693 57.9512 55.1904 57.1429 55.1904H52.5715M43.4286 30.7866L38.848 30.8019C38.0414 30.8043 37.2685 31.1264 36.699 31.6977C36.1294 32.269 35.8096 33.0428 35.8096 33.8495V38.4285M43.4286 55.1904H38.8572C38.0489 55.1904 37.2737 54.8693 36.7022 54.2978C36.1307 53.7263 35.8096 52.9511 35.8096 52.1428V47.5714" stroke="#C4C4C4" stroke-width="1.8" stroke-linecap="round" stroke-linejoin="round"/>
<path d="M47.9023 45.75C48.5273 45.75 49.0587 45.5313 49.4963 45.094C49.9337 44.6563 50.1523 44.125 50.1523 43.5C50.1523 42.875 49.9337 42.3437 49.4963 41.906C49.0587 41.4687 48.5273 41.25 47.9023 41.25C47.2773 41.25 46.746 41.4687 46.3083 41.906C45.871 42.3437 45.6523 42.875 45.6523 43.5C45.6523 44.125 45.871 44.6563 46.3083 45.094C46.746 45.5313 47.2773 45.75 47.9023 45.75ZM43.9023 47.5C43.6273 47.5 43.392 47.4022 43.1963 47.2065C43.0003 47.0105 42.9023 46.775 42.9023 46.5V40.5C42.9023 40.225 43.0003 39.9897 43.1963 39.794C43.392 39.598 43.6273 39.5 43.9023 39.5H45.4773L46.4023 38.5H49.4023L50.3273 39.5H51.9023C52.1773 39.5 52.4128 39.598 52.6088 39.794C52.8045 39.9897 52.9023 40.225 52.9023 40.5V46.5C52.9023 46.775 52.8045 47.0105 52.6088 47.2065C52.4128 47.4022 52.1773 47.5 51.9023 47.5H43.9023Z" fill="#C4C4C4"/>
</svg>
