<svg width="57" height="57" viewBox="0 0 57 57" fill="none" xmlns="http://www.w3.org/2000/svg">
<rect x="0.5" y="0.5" width="56" height="56" rx="7.5" fill="white" fill-opacity="0.5" stroke="#8BAA36"/>
<path d="M32.6251 17.5L32.4134 17.5706C30.0764 18.3496 28.5001 20.5366 28.5001 23V19.5067C28.5001 17.5404 27.1122 15.8474 25.1841 15.4618L21.6251 14.75V15.4933C21.6251 17.4596 23.013 19.1526 24.9411 19.5382L28.5001 20.25M33.7822 21.2795C35.2219 21.1809 36.6304 21.7307 37.6225 22.7786C38.5526 23.761 39.0774 25.0538 39.1 26.3991L39.0963 26.7103L39.0609 27.5787C38.9852 29.4341 38.6867 31.2727 38.1724 33.0553L37.9695 33.721L37.4647 35.2922C36.843 37.2268 35.2992 38.7251 33.3468 39.2885C32.5178 39.5277 31.3883 39.4762 29.9582 39.1339L29.5607 39.0334C28.8655 38.8484 28.1341 38.8484 27.4389 39.0334C25.8195 39.4644 24.5577 39.5495 23.6535 39.2885C21.7011 38.7251 20.1572 37.2268 19.5356 35.2922L19.0307 33.721C18.3917 31.7322 18.0245 29.666 17.9394 27.5787L17.9039 26.7103C17.8445 25.2546 18.376 23.8366 19.3777 22.7786C20.3699 21.7307 21.7783 21.1809 23.218 21.2795L24.0679 21.3377C25.2899 21.4213 26.7676 22.3181 28.501 24.028C30.1055 22.3985 31.4754 21.5121 32.6109 21.3689L32.9324 21.3377L33.7822 21.2795Z" stroke="#8BAA36" stroke-width="1.3" stroke-linecap="round"/>
</svg>
