<svg width="93" height="97" viewBox="0 0 93 97" fill="none" xmlns="http://www.w3.org/2000/svg">
<rect x="0.5" y="0.5" width="92" height="96" rx="7.5" fill="#EBF3D4" stroke="#8BAA36"/>
<g clip-path="url(#clip0_2212_1078)">
<path fill-rule="evenodd" clip-rule="evenodd" d="M36.766 67.7422C35.57 68.9381 33.6309 68.9381 32.4349 67.7422C31.4924 66.7997 31.2927 65.3957 31.8357 64.2576L31.5885 64.0104C30.4504 64.5534 29.0464 64.3536 28.1039 63.4111C26.9079 62.2151 26.9079 60.2761 28.1039 59.0801C29.2999 57.8841 31.2389 57.8841 32.4349 59.0801C32.6884 59.3336 32.8882 59.6204 33.0342 59.9265L36.7621 56.1971C37.1528 56.7453 37.594 57.2685 38.0858 57.7603C38.5781 58.2526 39.1018 58.6942 39.6506 59.0851L35.9215 62.8128C36.2268 62.9587 36.513 63.1582 36.766 63.4111C37.9619 64.6071 37.9619 66.5462 36.766 67.7422ZM47.3184 31.2064L47.3458 31.1761C49.7378 28.7841 55.555 30.7232 60.3389 35.5071C65.1228 40.2911 67.0619 46.1083 64.6699 48.5002L55.4099 57.7603C50.626 62.5442 42.8697 62.5442 38.0858 57.7603C33.3019 52.9763 33.3019 45.2201 38.0858 40.4361L47.3184 31.2064ZM47.3458 31.1761C44.9539 33.5681 46.8929 39.3853 51.6769 44.1692C56.4608 48.9531 62.278 50.8922 64.6699 48.5002C67.0619 46.1083 65.1228 40.2911 60.3389 35.5071C55.555 30.7232 49.7378 28.7841 47.3458 31.1761ZM53.1205 36.9508C52.3232 37.7481 52.9696 39.6872 54.5642 41.2818C56.1589 42.8765 58.0979 43.5228 58.8952 42.7255C59.6926 41.9282 59.0462 39.9891 57.4516 38.3945C55.8569 36.7998 53.9179 36.1535 53.1205 36.9508Z" stroke="#8BAA36" stroke-width="2" stroke-linecap="round"/>
</g>
<defs>
<clipPath id="clip0_2212_1078">
<rect width="49" height="49" fill="white" transform="translate(22 24)"/>
</clipPath>
</defs>
</svg>
