<svg width="112" height="112" viewBox="0 0 112 112" fill="none" xmlns="http://www.w3.org/2000/svg">
<rect x="0.5" y="0.5" width="111" height="111" rx="7.5" fill="white" fill-opacity="0.5" stroke="#8BAA36"/>
<g clip-path="url(#clip0_2212_1108)">
<path fill-rule="evenodd" clip-rule="evenodd" d="M44.8748 77.9908C43.508 79.3577 41.2919 79.3577 39.9251 77.9908C38.8479 76.9137 38.6196 75.3091 39.2402 74.0084L38.9577 73.726C37.657 74.3465 36.0525 74.1182 34.9753 73.0411C33.6085 71.6742 33.6085 69.4582 34.9753 68.0913C36.3422 66.7245 38.5582 66.7245 39.9251 68.0913C40.2148 68.381 40.4431 68.7089 40.61 69.0587L44.8704 64.7965C45.3169 65.423 45.8212 66.0209 46.3832 66.583C46.9458 67.1456 47.5444 67.6503 48.1715 68.0971L43.9097 72.3573C44.2587 72.5241 44.5857 72.752 44.8748 73.0411C46.2417 74.4079 46.2417 76.624 44.8748 77.9908ZM56.9348 36.2357L56.9661 36.2011C59.6998 33.4674 66.348 35.6835 71.8153 41.1508C77.2827 46.6181 79.4988 53.2664 76.7651 56L66.1822 66.583C60.7148 72.0503 51.8505 72.0503 46.3832 66.583C40.9159 61.1156 40.9159 52.2513 46.3832 46.784L56.9348 36.2357ZM56.9661 36.2011C54.2324 38.9347 56.4485 45.583 61.9159 51.0503C67.3832 56.5176 74.0314 58.7337 76.7651 56C79.4988 53.2664 77.2827 46.6181 71.8153 41.1508C66.348 35.6835 59.6998 33.4674 56.9661 36.2011ZM63.5658 42.8007C62.6545 43.7119 63.3932 45.928 65.2157 47.7505C67.0381 49.5729 69.2542 50.3116 70.1654 49.4004C71.0767 48.4892 70.338 46.2731 68.5155 44.4506C66.6931 42.6282 64.477 41.8895 63.5658 42.8007Z" stroke="#8BAA36" stroke-width="2" stroke-linecap="round"/>
</g>
<defs>
<clipPath id="clip0_2212_1108">
<rect width="56" height="56" fill="white" transform="translate(28 28)"/>
</clipPath>
</defs>
</svg>
