<svg width="57" height="57" viewBox="0 0 57 57" fill="none" xmlns="http://www.w3.org/2000/svg">
<rect x="0.5" y="0.5" width="56" height="56" rx="7.5" fill="white" fill-opacity="0.5" stroke="#8BAA36"/>
<g clip-path="url(#clip0_2212_1160)">
<path fill-rule="evenodd" clip-rule="evenodd" d="M21.944 41.4589C21.1386 42.2644 19.8327 42.2644 19.0272 41.4589C18.3925 40.8242 18.2579 39.8786 18.6236 39.1122L18.4572 38.9457C17.6907 39.3114 16.7451 39.1769 16.1104 38.5421C15.3049 37.7366 15.3049 36.4307 16.1104 35.6253C16.9158 34.8198 18.2217 34.8198 19.0272 35.6253C19.1979 35.796 19.3324 35.9892 19.4308 36.1953L21.9414 33.6837C22.2045 34.0529 22.5017 34.4052 22.8329 34.7364C23.1644 35.068 23.5172 35.3654 23.8867 35.6287L21.3753 38.1391C21.5809 38.2374 21.7737 38.3718 21.944 38.5421C22.7495 39.3476 22.7495 40.6535 21.944 41.4589ZM29.0508 16.8532L29.0692 16.8328C30.6802 15.2219 34.5979 16.5278 37.8197 19.7496C41.0415 22.9714 42.3474 26.8892 40.7365 28.5001L34.5001 34.7364C31.2783 37.9583 26.0547 37.9583 22.8329 34.7364C19.6111 31.5146 19.6111 26.291 22.8329 23.0692L29.0508 16.8532ZM29.0692 16.8328C27.4583 18.4437 28.7642 22.3614 31.9861 25.5833C35.2079 28.8051 39.1256 30.111 40.7365 28.5001C42.3474 26.8892 41.0415 22.9714 37.8197 19.7496C34.5979 16.5278 30.6802 15.2219 29.0692 16.8328ZM32.9583 20.7219C32.4214 21.2589 32.8567 22.5648 33.9306 23.6387C35.0045 24.7127 36.3104 25.148 36.8474 24.611C37.3844 24.074 36.9491 22.7681 35.8751 21.6942C34.8012 20.6202 33.4953 20.1849 32.9583 20.7219Z" stroke="#8BAA36" stroke-width="1.3" stroke-linecap="round"/>
</g>
<defs>
<clipPath id="clip0_2212_1160">
<rect width="33" height="33" fill="white" transform="translate(12 12)"/>
</clipPath>
</defs>
</svg>
