<svg width="128" height="128" viewBox="0 0 128 128" fill="none" xmlns="http://www.w3.org/2000/svg">
<rect x="0.5" y="0.5" width="127" height="127" rx="7.5" fill="white" fill-opacity="0.5" stroke="#8BAA36"/>
<path fill-rule="evenodd" clip-rule="evenodd" d="M54.9009 57.4445C66.4991 50.2103 81.7658 53.748 89 65.3462L88.4285 66.2207C87.0532 68.2314 85.3875 70.0296 83.4841 71.556C73.7546 79.3586 59.9349 78.617 51.0927 70.3279C49.6751 73.9832 45.9963 76.4495 41.8797 76.1509L41.5 76.1154V75.4711C41.5 71.6093 43.1907 68.0818 45.9302 65.6681C43.3835 63.6921 41.7063 60.6679 41.5177 57.2675L41.5 56.6257V54.5769L42.0182 54.5978C45.9111 54.8501 49.2442 57.2366 50.8176 60.631C52.0584 59.4327 53.4281 58.3632 54.9009 57.4445ZM69.0931 76.9755L69.422 76.9595C67.5995 78.7745 65.3654 80.153 62.8227 80.8995C60.8471 81.4795 58.8588 81.6271 56.9414 81.3952C57.8777 79.4935 58.6038 77.4605 59.0963 75.3423C62.2833 76.571 65.6932 77.1231 69.0931 76.9755ZM71.5331 53.5966L71.792 53.9861C66.8929 53.2243 61.7461 53.9232 57.0519 56.2451C55.6174 53.2141 53.6933 50.5718 51.4269 48.4127C52.4048 47.869 53.4519 47.425 54.5573 47.1005C61.0818 45.1849 67.7456 47.9862 71.5331 53.5966Z" stroke="#8BAA36" stroke-width="2" stroke-linecap="round"/>
<path fill-rule="evenodd" clip-rule="evenodd" d="M77.75 63V62.75V63Z" stroke="#8BAA36" stroke-width="2" stroke-linecap="round" stroke-linejoin="round"/>
</svg>
