<svg width="93" height="97" viewBox="0 0 93 97" fill="none" xmlns="http://www.w3.org/2000/svg">
<rect x="0.5" y="0.5" width="92" height="96" rx="7.5" fill="#EBF3D4" stroke="#8BAA36"/>
<path d="M52.6252 32.1666L52.3109 32.2714C48.8408 33.4281 46.5002 36.6755 46.5002 40.3333V35.1462C46.5002 32.2265 44.4394 29.7128 41.5764 29.1402L36.2919 28.0833V29.187C36.2919 32.1066 38.3527 34.6204 41.2157 35.193L46.5002 36.2499M54.3434 37.7785C56.4811 37.6321 58.5724 38.4485 60.0456 40.0045C61.4267 41.4632 62.2059 43.3829 62.2395 45.3803L62.234 45.8425L62.1813 47.1319C62.0689 49.8869 61.6257 52.617 60.8621 55.2638L60.5608 56.2524L59.8112 58.5852C58.8881 61.4579 56.5958 63.6826 53.6968 64.5192C52.4659 64.8744 50.7887 64.7979 48.6652 64.2897L48.075 64.1404C47.0428 63.8657 45.9567 63.8657 44.9244 64.1405C42.5199 64.7805 40.6463 64.9067 39.3036 64.5192C36.4046 63.6826 34.1123 61.4579 33.1892 58.5852L32.4396 56.2524C31.4907 53.2992 30.9456 50.2312 30.8191 47.1319L30.7664 45.8425C30.6782 43.6809 31.4675 41.5755 32.9548 40.0045C34.428 38.4485 36.5193 37.6321 38.657 37.7785L39.919 37.8649C41.7334 37.9892 43.9276 39.3207 46.5016 41.8597C48.8839 39.44 50.9181 38.1239 52.6041 37.9113L53.0814 37.8649L54.3434 37.7785Z" stroke="#8BAA36" stroke-width="2" stroke-linecap="round"/>
</svg>
