<svg width="112" height="112" viewBox="0 0 112 112" fill="none" xmlns="http://www.w3.org/2000/svg">
<rect x="0.5" y="0.5" width="111" height="111" rx="7.5" fill="white" fill-opacity="0.5" stroke="#8BAA36"/>
<path fill-rule="evenodd" clip-rule="evenodd" d="M47.5075 49.8816C58.3325 43.1297 72.5814 46.4315 79.3333 57.2565L78.8 58.0727C77.5164 59.9494 75.9617 61.6277 74.1852 63.0524C65.1043 70.3348 52.2059 69.6426 43.9532 61.9062C42.6301 65.3177 39.1965 67.6197 35.3544 67.3409L35 67.3078V66.7064C35 63.1021 36.578 59.8097 39.1348 57.5569C36.7579 55.7127 35.1925 52.8901 35.0166 49.7164L35 49.1174V47.2052L35.4836 47.2247C39.117 47.4602 42.2279 49.6876 43.6964 52.8557C44.8545 51.7373 46.1328 50.7391 47.5075 49.8816ZM60.7536 68.1106L61.0605 68.0956C59.3595 69.7896 57.2744 71.0762 54.9012 71.773C53.0573 72.3143 51.2016 72.452 49.412 72.2356C50.2858 70.4606 50.9636 68.5632 51.4232 66.5863C54.3977 67.733 57.5803 68.2483 60.7536 68.1106ZM63.0309 46.2902L63.2725 46.6538C58.7 45.9428 53.8964 46.5951 49.5151 48.7622C48.1762 45.9332 46.3804 43.4671 44.2651 41.4519C45.1778 40.9445 46.1551 40.5301 47.1869 40.2272C53.2764 38.4394 59.4959 41.0539 63.0309 46.2902Z" stroke="#8BAA36" stroke-width="2" stroke-linecap="round"/>
<path fill-rule="evenodd" clip-rule="evenodd" d="M68.833 55.0668V54.8335V55.0668Z" stroke="#8BAA36" stroke-width="2" stroke-linecap="round" stroke-linejoin="round"/>
</svg>
