<svg width="112" height="112" viewBox="0 0 112 112" fill="none" xmlns="http://www.w3.org/2000/svg">
<g clip-path="url(#clip0_2212_1114)">
<rect x="0.5" y="0.5" width="111" height="111" rx="7.5" fill="white" fill-opacity="0.5" stroke="#8BAA36"/>
<path d="M51.3333 42.0001C60.354 42.0001 67.6667 49.3128 67.6667 58.3334C67.6667 59.2075 67.598 60.0655 67.4658 60.9023L60.0034 53.4423C57.5299 55.9158 56 59.3329 56 63.1073C56 66.6943 57.3818 69.9586 59.6421 72.397C57.2087 73.8393 54.3676 74.6667 51.3333 74.6667C42.3127 74.6667 35 67.3541 35 58.3334C35 49.3128 42.3127 42.0001 51.3333 42.0001ZM51.3333 42.0001L45.2939 40.7922C42.0219 40.1378 39.6667 37.2649 39.6667 33.9281V32.6667L45.7061 33.8746C48.9781 34.529 51.3333 37.4019 51.3333 40.7387V44.3334M51.3333 42.0001V44.3334M51.3333 44.3334C51.3333 41.4734 52.9492 38.8588 55.5073 37.5798L56 37.3334M62.9772 56.6406L62.8572 56.5205C61.9653 55.6287 61.0141 54.6775 60.0034 53.6667C57.5299 56.1402 56 59.5573 56 63.3317C56 64.2444 56.0895 65.1362 56.2601 65.9989C56.4359 66.8878 56.6979 67.7457 57.0371 68.5636C57.7298 70.2342 58.7444 71.7377 60.0034 72.9967C61.2624 74.2557 62.7659 75.2703 64.4365 75.963C65.2544 76.3022 66.1123 76.5642 67.0012 76.74C67.8638 76.9106 68.7556 77.0001 69.6683 77.0001C73.4428 77.0001 76.8598 75.4702 79.3333 72.9967C78.3226 71.986 77.3714 71.0347 76.4795 70.1429L76.3595 70.0229M62.9772 56.6406C61.2648 58.353 60.2056 60.7187 60.2056 63.3317M62.9772 56.6406L63.5149 57.1782C63.7304 57.3938 63.9422 57.6056 64.1503 57.8137L65.3542 59.0176C65.5474 59.2108 65.737 59.4003 65.9227 59.5861L68.431 62.0943C68.8769 62.5403 69.2893 62.9527 69.6683 63.3317M60.2056 63.3317C60.2056 68.5578 64.4422 72.7944 69.6683 72.7944M60.2056 63.3317C60.2056 63.9636 60.2676 64.5809 60.3857 65.1781L69.6683 63.3317M69.6683 72.7944C72.2814 72.7944 74.6471 71.7353 76.3595 70.0229M69.6683 72.7944C68.3851 72.7944 67.1616 72.539 66.0457 72.0762L69.6683 63.3317M76.3595 70.0229L75.8218 69.4852C75.6063 69.2697 75.3945 69.0579 75.1864 68.8498L73.9825 67.6459C73.7893 67.4526 73.5997 67.2631 73.4139 67.0773L70.9057 64.5691C70.4598 64.1232 70.0474 63.7107 69.6683 63.3317" stroke="#8BAA36" stroke-width="2" stroke-linecap="round"/>
</g>
<defs>
<clipPath id="clip0_2212_1114">
<rect width="112" height="112" fill="white"/>
</clipPath>
</defs>
</svg>
