<svg width="60" height="60" viewBox="0 0 60 60" fill="none" xmlns="http://www.w3.org/2000/svg">
<rect x="0.5" y="0.5" width="59" height="59" rx="7.5" fill="#EBF3D4" stroke="#8BAA36"/>
<g clip-path="url(#clip0_2220_1335)">
<path fill-rule="evenodd" clip-rule="evenodd" d="M23.6429 42.5662C22.8618 43.3473 21.5955 43.3473 20.8145 42.5662C20.199 41.9507 20.0685 41.0338 20.4231 40.2906L20.2617 40.1292C19.5184 40.4838 18.6015 40.3533 17.986 39.7378C17.205 38.9567 17.205 37.6904 17.986 36.9094C18.7671 36.1283 20.0334 36.1283 20.8145 36.9094C20.98 37.0749 21.1105 37.2622 21.2058 37.4621L23.6404 35.0266C23.8955 35.3846 24.1837 35.7263 24.5048 36.0474C24.8263 36.3689 25.1684 36.6573 25.5267 36.9127L23.0914 39.347C23.2908 39.4424 23.4777 39.5726 23.6429 39.7378C24.4239 40.5188 24.4239 41.7852 23.6429 42.5662ZM30.5343 18.7061L30.5522 18.6863C32.1143 17.1243 35.9133 18.3906 39.0375 21.5148C42.1617 24.639 43.428 28.438 41.8659 30.0001L35.8185 36.0474C32.6943 39.1716 27.629 39.1716 24.5048 36.0474C21.3806 32.9232 21.3806 27.8579 24.5048 24.7337L30.5343 18.7061ZM30.5522 18.6863C28.9901 20.2484 30.2564 24.0474 33.3806 27.1716C36.5048 30.2958 40.3038 31.5622 41.8659 30.0001C43.428 28.438 42.1617 24.639 39.0375 21.5148C35.9133 18.3906 32.1143 17.1243 30.5522 18.6863ZM34.3234 22.4576C33.8027 22.9783 34.2248 24.2446 35.2662 25.286C36.3076 26.3274 37.574 26.7495 38.0947 26.2288C38.6154 25.7081 38.1933 24.4418 37.1519 23.4004C36.1105 22.359 34.8441 21.9369 34.3234 22.4576Z" stroke="#8BAA36" stroke-width="1.5" stroke-linecap="round"/>
</g>
<defs>
<clipPath id="clip0_2220_1335">
<rect width="32" height="32" fill="white" transform="translate(14 14)"/>
</clipPath>
</defs>
</svg>
