<svg width="57" height="57" viewBox="0 0 57 57" fill="none" xmlns="http://www.w3.org/2000/svg">
<rect x="0.5" y="0.5" width="56" height="56" rx="7.5" fill="white" fill-opacity="0.5" stroke="#8BAA36"/>
<g clip-path="url(#clip0_2212_1165)">
<path fill-rule="evenodd" clip-rule="evenodd" d="M20.9892 25.5514C23.3285 23.212 26.7534 22.844 28.6388 24.7294C29.1434 25.234 29.4866 25.8489 29.6738 26.5237C28.7814 27.644 27.7707 28.6636 26.6592 29.5646C26.6616 28.5658 26.3283 27.6322 25.6383 26.9422C24.2129 25.5168 21.7478 25.6135 19.8269 27.0619C20.1334 26.5291 20.522 26.0186 20.9892 25.5514ZM35.903 27.8828L35.8243 27.8797C38.4907 27.8797 40.6522 30.5616 40.6522 33.8699C40.6522 34.2666 40.6211 34.6543 40.5621 35.0287C39.895 32.9987 38.2745 31.566 36.3813 31.566C36.0129 31.566 35.6549 31.6202 35.3122 31.7226C35.0733 31.2753 34.7671 30.8578 34.3935 30.4842L34.48 30.5759C34.9493 29.8791 35.3589 29.1395 35.7018 28.3648L35.903 27.8828ZM35.4715 17.2471C36.2037 17.4091 36.736 18.0426 36.7694 18.7918L36.9089 21.9215C37.0513 25.1154 36.1392 28.1122 34.4806 30.5749L34.3935 30.4842C32.2227 28.3134 28.566 28.4171 26.0479 30.6545L26.2638 30.6567C27.4117 30.689 28.5033 31.1105 29.3282 31.9354C30.0294 32.6366 30.4391 33.5306 30.566 34.488C28.4519 35.9103 25.9321 36.7877 23.2 36.9095C22.7738 36.9285 22.347 36.9285 21.9209 36.9095L18.7912 36.77C17.8766 36.7292 17.1683 35.9548 17.2091 35.0403C17.2425 34.2911 17.7748 33.6576 18.507 33.4957C25.9929 31.8399 31.8393 25.9935 33.4951 18.5076C33.6928 17.6138 34.5776 17.0494 35.4715 17.2471ZM26.0479 30.6545C28.566 28.4171 32.2227 28.3134 34.3935 30.4842C36.656 32.7467 36.4479 36.6231 33.9286 39.1424C31.8954 41.1757 28.9782 41.7035 26.7388 40.6422C27.4904 40.3455 28.208 39.8832 28.8321 39.2591C30.9915 37.0998 31.2136 33.8208 29.3282 31.9354C28.5033 31.1105 27.4117 30.689 26.2638 30.6567L26.0479 30.6545Z" stroke="#8BAA36" stroke-width="1.3" stroke-linecap="round"/>
</g>
<defs>
<clipPath id="clip0_2212_1165">
<rect width="33" height="33" fill="white" transform="translate(12 12)"/>
</clipPath>
</defs>
</svg>
