<svg width="60" height="60" viewBox="0 0 60 60" fill="none" xmlns="http://www.w3.org/2000/svg">
<rect x="0.5" y="0.5" width="59" height="59" rx="7.5" fill="#EBF3D4" stroke="#8BAA36"/>
<path d="M27.3333 22.0001C32.488 22.0001 36.6667 26.1788 36.6667 31.3334C36.6667 31.8329 36.6274 32.3232 36.5519 32.8014L32.2876 28.5385C30.8742 29.9519 30 31.9045 30 34.0613C30 36.1111 30.7896 37.9764 32.0812 39.3697C30.6907 40.1939 29.0672 40.6667 27.3333 40.6667C22.1787 40.6667 18 36.4881 18 31.3334C18 26.1788 22.1787 22.0001 27.3333 22.0001ZM27.3333 22.0001L23.8822 21.3099C22.0125 20.9359 20.6667 19.2943 20.6667 17.3875V16.6667L24.1178 17.357C25.9875 17.7309 27.3333 19.3726 27.3333 21.2793V23.3334M27.3333 22.0001V23.3334M27.3333 23.3334C27.3333 21.6991 28.2567 20.2051 29.7185 19.4742L30 19.3334M33.987 30.3661L33.9184 30.2975C33.4088 29.7879 32.8652 29.2443 32.2876 28.6667C30.8742 30.0802 30 32.0328 30 34.1896C30 34.7111 30.0511 35.2207 30.1486 35.7137C30.2491 36.2216 30.3988 36.7119 30.5926 37.1792C30.9885 38.1339 31.5682 38.993 32.2876 39.7124C33.0071 40.4319 33.8662 41.0116 34.8209 41.4075C35.2882 41.6013 35.7785 41.751 36.2864 41.8515C36.7793 41.949 37.2889 42.0001 37.8105 42.0001C39.9673 42.0001 41.9199 41.1259 43.3333 39.7124C42.7558 39.1349 42.2122 38.5913 41.7026 38.0817L41.634 38.0131M33.987 30.3661C33.0085 31.3446 32.4032 32.6964 32.4032 34.1896M33.987 30.3661L34.2942 30.6733C34.4174 30.7965 34.5384 30.9175 34.6573 31.0364L35.3453 31.7244C35.4557 31.8348 35.564 31.9431 35.6701 32.0493L37.1034 33.4825C37.3582 33.7373 37.5939 33.973 37.8105 34.1896M32.4032 34.1896C32.4032 37.1759 34.8241 39.5969 37.8105 39.5969M32.4032 34.1896C32.4032 34.5506 32.4386 34.9034 32.5061 35.2447L37.8105 34.1896M37.8105 39.5969C39.3037 39.5969 40.6555 38.9916 41.634 38.0131M37.8105 39.5969C37.0772 39.5969 36.378 39.4509 35.7404 39.1865L37.8105 34.1896M41.634 38.0131L41.3268 37.7059C41.2036 37.5827 41.0826 37.4617 40.9637 37.3428L40.2757 36.6548C40.1653 36.5444 40.057 36.4361 39.9508 36.3299L38.5176 34.8967C38.2628 34.6419 38.0271 34.4062 37.8105 34.1896" stroke="#8BAA36" stroke-width="1.5" stroke-linecap="round"/>
</svg>
