<svg width="60" height="60" viewBox="0 0 60 60" fill="none" xmlns="http://www.w3.org/2000/svg">
<rect x="0.5" y="0.5" width="59" height="59" rx="7.5" fill="#EBF3D4" stroke="#8BAA36"/>
<g clip-path="url(#clip0_2220_1323)">
<path fill-rule="evenodd" clip-rule="evenodd" d="M22.717 27.1407C24.9855 24.8722 28.3065 24.5154 30.1348 26.3437C30.6241 26.833 30.9569 27.4292 31.1384 28.0835C30.2731 29.1699 29.293 30.1586 28.2152 31.0322C28.2175 30.0638 27.8943 29.1584 27.2252 28.4893C25.8431 27.1072 23.4526 27.2009 21.59 28.6054C21.8871 28.0888 22.264 27.5937 22.717 27.1407ZM37.1789 29.4014L37.1026 29.3984C39.6881 29.3984 41.7842 31.9991 41.7842 35.2071C41.7842 35.5918 41.754 35.9678 41.6968 36.3308C41.05 34.3623 39.4786 32.973 37.6427 32.973C37.2855 32.973 36.9383 33.0256 36.606 33.1248C36.3743 32.6911 36.0774 32.2863 35.7152 31.924L35.799 32.0129C36.2541 31.3372 36.6513 30.6201 36.9838 29.8689L37.1789 29.4014ZM36.7605 19.0881C37.4705 19.2451 37.9867 19.8594 38.0191 20.5859L38.1543 23.6208C38.2924 26.7179 37.4079 29.6239 35.7996 32.012L35.7152 31.924C33.6101 29.819 30.0642 29.9195 27.6225 32.0891L27.8318 32.0913C28.9449 32.1226 30.0034 32.5313 30.8033 33.3312C31.4833 34.0112 31.8806 34.8781 32.0037 35.8065C29.9536 37.1857 27.5102 38.0365 24.8608 38.1546C24.4476 38.173 24.0337 38.173 23.6205 38.1546L20.5856 38.0194C19.6988 37.9798 19.0119 37.2289 19.0515 36.3421C19.0838 35.6155 19.6 35.0013 20.3101 34.8442C27.5691 33.2387 33.2384 27.5694 34.8439 20.3104C35.0356 19.4436 35.8937 18.8964 36.7605 19.0881ZM27.6225 32.0891C30.0642 29.9195 33.6101 29.819 35.7152 31.924C37.9091 34.118 37.7073 37.8769 35.2643 40.3199C33.2927 42.2915 30.4639 42.8034 28.2924 41.7742C29.0212 41.4865 29.7171 41.0382 30.3223 40.4331C32.4162 38.3391 32.6316 35.1595 30.8033 33.3312C30.0034 32.5313 28.9449 32.1226 27.8318 32.0913L27.6225 32.0891Z" stroke="#8BAA36" stroke-width="1.5" stroke-linecap="round"/>
</g>
<defs>
<clipPath id="clip0_2220_1323">
<rect width="32" height="32" fill="white" transform="translate(14 14)"/>
</clipPath>
</defs>
</svg>
