<svg width="128" height="128" viewBox="0 0 128 128" fill="none" xmlns="http://www.w3.org/2000/svg">
<rect x="0.5" y="0.5" width="127" height="127" rx="7.5" fill="white" fill-opacity="0.5" stroke="#8BAA36"/>
<g clip-path="url(#clip0_2212_1035)">
<path fill-rule="evenodd" clip-rule="evenodd" d="M50.3444 58.6388C54.5977 54.3854 60.8247 53.7164 64.2528 57.1444C65.1702 58.0618 65.7942 59.1797 66.1345 60.4066C64.5121 62.4436 62.6744 64.2974 60.6535 65.9355C60.6579 64.1196 60.0518 62.422 58.7973 61.1675C56.2057 58.576 51.7237 58.7517 48.2312 61.3852C48.7884 60.4164 49.4949 59.4882 50.3444 58.6388ZM77.4604 62.8777L77.3173 62.872C82.1653 62.872 86.0953 67.7483 86.0953 73.7634C86.0953 74.4847 86.0388 75.1896 85.9315 75.8703C84.7187 72.1793 81.7723 69.5744 78.3302 69.5744C77.6603 69.5744 77.0093 69.673 76.3862 69.8591C75.9518 69.0459 75.3951 68.2868 74.716 67.6076L74.8732 67.7743C75.7265 66.5074 76.4712 65.1627 77.0946 63.7541L77.4604 62.8777ZM76.6758 43.5402C78.0072 43.8347 78.975 44.9864 79.0357 46.3486L79.2894 52.039C79.5482 57.8462 77.8899 63.2948 74.8743 67.7725L74.716 67.6076C70.7689 63.6606 64.1204 63.8492 59.5421 67.9172L59.9346 67.9212C62.0217 67.98 64.0064 68.7463 65.5062 70.2461C66.7811 71.521 67.526 73.1464 67.7568 74.8873C63.913 77.4732 59.3316 79.0685 54.364 79.29C53.5892 79.3245 52.8132 79.3245 52.0384 79.29L46.348 79.0363C44.6853 78.9622 43.3974 77.5542 43.4715 75.8914C43.5322 74.5292 44.5 73.3774 45.8314 73.083C59.4421 70.0725 70.072 59.4426 73.0824 45.832C73.4418 44.2068 75.0507 43.1807 76.6758 43.5402ZM59.5421 67.9172C64.1204 63.8492 70.7689 63.6606 74.716 67.6076C78.8296 71.7212 78.4511 78.7693 73.8706 83.3498C70.1738 87.0466 64.8698 88.0063 60.7983 86.0766C62.1647 85.5372 63.4695 84.6967 64.6042 83.562C68.5304 79.6358 68.9342 73.6741 65.5062 70.2461C64.0064 68.7463 62.0217 67.98 59.9346 67.9212L59.5421 67.9172Z" stroke="#8BAA36" stroke-width="2" stroke-linecap="round"/>
</g>
<defs>
<clipPath id="clip0_2212_1035">
<rect width="60" height="60" fill="white" transform="translate(34 34)"/>
</clipPath>
</defs>
</svg>
