<svg width="128" height="128" viewBox="0 0 128 128" fill="none" xmlns="http://www.w3.org/2000/svg">
<rect x="0.5" y="0.5" width="127" height="127" rx="7.5" fill="white" fill-opacity="0.5" stroke="#8BAA36"/>
<path d="M71.4996 44L71.1147 44.1283C66.8656 45.5447 63.9996 49.5211 63.9996 54V47.6485C63.9996 44.0734 61.4761 40.9953 57.9705 40.2942L51.4996 39V40.3515C51.4996 43.9266 54.023 47.0047 57.5287 47.7058L63.9996 49M73.6034 50.8717C76.2211 50.6925 78.7818 51.6922 80.5857 53.5974C82.2769 55.3837 83.231 57.7342 83.2722 60.1801L83.2654 60.746L83.201 62.3249C83.0633 65.6983 82.5206 69.0414 81.5856 72.2823L81.2166 73.4928L80.2988 76.3494C79.1685 79.8669 76.3615 82.5911 72.8117 83.6155C71.3045 84.0504 69.2508 83.9567 66.6506 83.3344L65.9279 83.1516C64.664 82.8153 63.334 82.8153 62.0701 83.1517C59.1258 83.9354 56.8316 84.0899 55.1875 83.6155C51.6377 82.5911 48.8307 79.8669 47.7004 76.3494L46.7825 73.4928C45.6206 69.8767 44.9531 66.12 44.7982 62.3249L44.7338 60.746C44.6257 58.0992 45.5922 55.5211 47.4134 53.5974C49.2173 51.6922 51.7781 50.6925 54.3957 50.8717L55.941 50.9776C58.1627 51.1297 60.8495 52.7602 64.0012 55.8691C66.9184 52.9063 69.4093 51.2947 71.4737 51.0344L72.0582 50.9776L73.6034 50.8717Z" stroke="#8BAA36" stroke-width="2" stroke-linecap="round"/>
</svg>
