<svg width="93" height="97" viewBox="0 0 93 97" fill="none" xmlns="http://www.w3.org/2000/svg">
<rect x="0.5" y="0.5" width="92" height="96" rx="7.5" fill="#EBF3D4" stroke="#8BAA36"/>
<g clip-path="url(#clip0_2212_1046)">
<path fill-rule="evenodd" clip-rule="evenodd" d="M35.3487 44.1216C38.8222 40.648 43.9076 40.1016 46.7072 42.9012C47.4564 43.6504 47.966 44.5634 48.2439 45.5653C46.919 47.2289 45.4182 48.7428 43.7678 50.0806C43.7713 48.5976 43.2764 47.2112 42.2518 46.1867C40.1354 44.0703 36.4751 44.2138 33.6229 46.3645C34.0779 45.5733 34.6549 44.8153 35.3487 44.1216ZM57.4934 47.5833L57.3765 47.5787C61.3357 47.5787 64.5452 51.561 64.5452 56.4734C64.5452 57.0624 64.4991 57.6381 64.4115 58.194C63.421 55.1797 61.0148 53.0523 58.2037 53.0523C57.6567 53.0523 57.125 53.1329 56.6161 53.2849C56.2614 52.6207 55.8068 52.0008 55.2521 51.4461L55.3805 51.5823C56.0774 50.5476 56.6856 49.4494 57.1947 48.2991L57.4934 47.5833ZM56.8527 31.7911C57.94 32.0316 58.7303 32.9721 58.7799 34.0846L58.9871 38.7317C59.1984 43.4743 57.8441 47.924 55.3814 51.5808L55.2521 51.4461C52.0287 48.2227 46.599 48.3767 42.8601 51.6989L43.1807 51.7022C44.8851 51.7502 46.506 52.376 47.7308 53.6009C48.772 54.6421 49.3803 55.9695 49.5688 57.3912C46.4297 59.503 42.6882 60.8059 38.6313 60.9867C37.9986 61.0149 37.3649 61.0149 36.7321 60.9867L32.085 60.7796C30.727 60.719 29.6753 59.5691 29.7358 58.2112C29.7854 57.0987 30.5757 56.1581 31.663 55.9177C42.7784 53.4592 51.4595 44.7781 53.918 33.6627C54.2116 32.3355 55.5255 31.4975 56.8527 31.7911ZM42.8601 51.6989C46.599 48.3767 52.0287 48.2227 55.2521 51.4461C58.6116 54.8056 58.3025 60.5615 54.5617 64.3022C51.5427 67.3213 47.2111 68.1051 43.886 66.5291C45.0019 66.0887 46.0675 65.4022 46.9942 64.4755C50.2006 61.2692 50.5303 56.4004 47.7308 53.6009C46.506 52.376 44.8851 51.7502 43.1807 51.7022L42.8601 51.6989Z" stroke="#8BAA36" stroke-width="2" stroke-linecap="round"/>
</g>
<defs>
<clipPath id="clip0_2212_1046">
<rect width="49" height="49" fill="white" transform="translate(22 24)"/>
</clipPath>
</defs>
</svg>
