<svg width="112" height="112" viewBox="0 0 112 112" fill="none" xmlns="http://www.w3.org/2000/svg">
<rect x="0.5" y="0.5" width="111" height="111" rx="7.5" fill="white" fill-opacity="0.5" stroke="#8BAA36"/>
<g clip-path="url(#clip0_2212_1111)">
<path fill-rule="evenodd" clip-rule="evenodd" d="M43.2548 50.9962C47.2246 47.0264 53.0364 46.402 56.2359 49.6015C57.0922 50.4577 57.6746 51.5011 57.9922 52.6462C56.478 54.5474 54.7628 56.2776 52.8766 57.8065C52.8807 56.1117 52.315 54.5273 51.1441 53.3564C48.7253 50.9376 44.5421 51.1016 41.2825 53.5596C41.8025 52.6554 42.4619 51.7891 43.2548 50.9962ZM68.563 54.9525L68.4295 54.9473C72.9543 54.9473 76.6223 59.4984 76.6223 65.1125C76.6223 65.7857 76.5696 66.4437 76.4694 67.079C75.3374 63.6341 72.5875 61.2028 69.3748 61.2028C68.7497 61.2028 68.142 61.2949 67.5604 61.4685C67.1551 60.7095 66.6355 60.001 66.0016 59.3671L66.1483 59.5227C66.9448 58.3402 67.6398 57.0852 68.2216 55.7706L68.563 54.9525ZM67.8308 36.9042C69.0734 37.1791 69.9767 38.254 70.0334 39.5254L70.2701 44.8364C70.5117 50.2565 68.9639 55.3418 66.1494 59.5211L66.0016 59.3671C62.3177 55.6832 56.1124 55.8593 51.8393 59.6561L52.2056 59.6598C54.1536 59.7147 56.006 60.4299 57.4058 61.8297C58.5957 63.0196 59.291 64.5367 59.5064 66.1615C55.9188 68.575 51.6428 70.064 47.0064 70.2707C46.2832 70.3029 45.559 70.3029 44.8358 70.2707L39.5248 70.0339C37.9729 69.9648 36.7709 68.6506 36.8401 67.0987C36.8967 65.8273 37.8 64.7523 39.0426 64.4775C51.7459 61.6677 61.6672 51.7465 64.4769 39.0432C64.8124 37.5264 66.314 36.5687 67.8308 36.9042ZM51.8393 59.6561C56.1124 55.8593 62.3177 55.6832 66.0016 59.3671C69.841 63.2065 69.4877 69.7847 65.2126 74.0598C61.7622 77.5102 56.8119 78.4059 53.0118 76.6049C54.2871 76.1015 55.5049 75.317 56.5639 74.2579C60.2284 70.5935 60.6053 65.0292 57.4058 61.8297C56.006 60.4299 54.1536 59.7147 52.2056 59.6598L51.8393 59.6561Z" stroke="#8BAA36" stroke-width="2" stroke-linecap="round"/>
</g>
<defs>
<clipPath id="clip0_2212_1111">
<rect width="56" height="56" fill="white" transform="translate(28 28)"/>
</clipPath>
</defs>
</svg>
