<svg width="57" height="57" viewBox="0 0 57 57" fill="none" xmlns="http://www.w3.org/2000/svg">
<rect x="0.5" y="0.5" width="56" height="56" rx="7.5" fill="white" fill-opacity="0.5" stroke="#8BAA36"/>
<path d="M25.75 20.25C31.0657 20.25 35.375 24.5593 35.375 29.875C35.375 30.3901 35.3345 30.8957 35.2566 31.3888L30.8591 26.9927C29.4015 28.4503 28.5 30.464 28.5 32.6882C28.5 34.802 29.3143 36.7256 30.6462 38.1625C29.2122 39.0124 27.5381 39.5 25.75 39.5C20.4343 39.5 16.125 35.1907 16.125 29.875C16.125 24.5593 20.4343 20.25 25.75 20.25ZM25.75 20.25L22.191 19.5382C20.2629 19.1526 18.875 17.4596 18.875 15.4933V14.75L22.434 15.4618C24.3621 15.8474 25.75 17.5404 25.75 19.5067V21.625M25.75 20.25V21.625M25.75 21.625C25.75 19.9396 26.7022 18.3989 28.2097 17.6452L28.5 17.5M32.6116 28.8774L32.5408 28.8067C32.0153 28.2812 31.4547 27.7206 30.8591 27.125C29.4015 28.5826 28.5 30.5962 28.5 32.8204C28.5 33.3583 28.5527 33.8838 28.6533 34.3921C28.7569 34.916 28.9113 35.4215 29.1111 35.9035C29.5194 36.888 30.1172 37.774 30.8591 38.5159C31.601 39.2578 32.487 39.8556 33.4715 40.2639C33.9535 40.4637 34.459 40.6181 34.9829 40.7217C35.4912 40.8223 36.0167 40.875 36.5546 40.875C38.7788 40.875 40.7924 39.9735 42.25 38.5159C41.6544 37.9203 41.0938 37.3597 40.5683 36.8342L40.4976 36.7634M32.6116 28.8774C31.6025 29.8865 30.9783 31.2806 30.9783 32.8204M32.6116 28.8774L32.9284 29.1943C33.0554 29.3213 33.1802 29.4461 33.3028 29.5687L34.0123 30.2782C34.1262 30.392 34.2378 30.5037 34.3473 30.6132L35.8254 32.0913C36.0882 32.354 36.3312 32.5971 36.5546 32.8204M30.9783 32.8204C30.9783 35.9001 33.4749 38.3967 36.5546 38.3967M30.9783 32.8204C30.9783 33.1928 31.0148 33.5566 31.0844 33.9085L36.5546 32.8204M36.5546 38.3967C38.0944 38.3967 39.4885 37.7725 40.4976 36.7634M36.5546 38.3967C35.7984 38.3967 35.0773 38.2462 34.4198 37.9734L36.5546 32.8204M40.4976 36.7634L40.1807 36.4466C40.0537 36.3196 39.9289 36.1948 39.8063 36.0722L39.0968 35.3627C38.983 35.2488 38.8713 35.1372 38.7618 35.0277L37.2837 33.5496C37.021 33.2868 36.7779 33.0438 36.5546 32.8204" stroke="#8BAA36" stroke-width="1.3" stroke-linecap="round"/>
</svg>
