<svg width="60" height="60" viewBox="0 0 60 60" fill="none" xmlns="http://www.w3.org/2000/svg">
<rect x="0.5" y="0.5" width="59" height="59" rx="7.5" fill="#EBF3D4" stroke="#8BAA36"/>
<path fill-rule="evenodd" clip-rule="evenodd" d="M25.1472 26.5038C31.3329 22.6456 39.4751 24.5323 43.3333 30.718L43.0285 31.1845C42.2951 32.2568 41.4067 33.2159 40.3915 34.03C35.2025 38.1913 27.832 37.7958 23.1161 33.375C22.36 35.3245 20.398 36.6398 18.2025 36.4806L18 36.4616V36.118C18 34.0584 18.9017 32.177 20.3627 30.8897C19.0045 29.8359 18.11 28.2229 18.0095 26.4094L18 26.0671V24.9744L18.2764 24.9856C20.3526 25.1201 22.1302 26.3929 22.9694 28.2033C23.6312 27.5642 24.3616 26.9938 25.1472 26.5038ZM32.7163 36.9204L32.8917 36.9118C31.9197 37.8798 30.7282 38.615 29.3721 39.0132C28.3185 39.3225 27.258 39.4012 26.2354 39.2775C26.7348 38.2633 27.1221 37.179 27.3847 36.0493C29.0844 36.7046 30.903 36.9991 32.7163 36.9204ZM34.0177 24.4516L34.1557 24.6593C31.5429 24.253 28.7979 24.6258 26.2944 25.8641C25.5293 24.2476 24.5031 22.8384 23.2944 21.6868C23.8159 21.3969 24.3743 21.1601 24.9639 20.987C28.4436 19.9654 31.9977 21.4594 34.0177 24.4516Z" stroke="#8BAA36" stroke-width="1.5" stroke-linecap="round"/>
<path fill-rule="evenodd" clip-rule="evenodd" d="M37.333 29.4668V29.3335V29.4668Z" stroke="#8BAA36" stroke-width="1.5" stroke-linecap="round" stroke-linejoin="round"/>
</svg>
