<svg width="93" height="97" viewBox="0 0 93 97" fill="none" xmlns="http://www.w3.org/2000/svg">
<rect x="0.5" y="0.5" width="92" height="96" rx="7.5" fill="#EBF3D4" stroke="#8BAA36"/>
<path d="M42.4167 36.2499C50.3097 36.2499 56.7083 42.6485 56.7083 50.5416C56.7083 51.3064 56.6483 52.0571 56.5326 52.7894L50.0029 46.2619C47.8386 48.4262 46.5 51.4161 46.5 54.7187C46.5 57.8574 47.709 60.7137 49.6868 62.8472C47.5576 64.1093 45.0717 64.8333 42.4167 64.8333C34.5236 64.8333 28.125 58.4347 28.125 50.5416C28.125 42.6485 34.5236 36.2499 42.4167 36.2499ZM42.4167 36.2499L37.1321 35.193C34.2691 34.6204 32.2083 32.1066 32.2083 29.187V28.0833L37.4929 29.1402C40.3559 29.7128 42.4167 32.2265 42.4167 35.1462V38.2916M42.4167 36.2499V38.2916M42.4167 38.2916C42.4167 35.789 43.8306 33.5013 46.0689 32.3821L46.5 32.1666M52.6051 49.0604L52.5 48.9553C51.7197 48.175 50.8873 47.3426 50.0029 46.4583C47.8386 48.6226 46.5 51.6125 46.5 54.9151C46.5 55.7137 46.5783 56.4941 46.7276 57.2489C46.8814 58.0267 47.1107 58.7773 47.4074 59.493C48.0136 60.9548 48.9013 62.2703 50.0029 63.372C51.1046 64.4736 52.4201 65.3613 53.8819 65.9675C54.5976 66.2642 55.3483 66.4935 56.1261 66.6473C56.8809 66.7966 57.6612 66.8749 58.4598 66.8749C61.7624 66.8749 64.7524 65.5363 66.9167 63.372C66.0323 62.4876 65.1999 61.6552 64.4196 60.8749L64.3146 60.7699M52.6051 49.0604C51.1067 50.5587 50.1799 52.6287 50.1799 54.9151M52.6051 49.0604L53.0755 49.5308C53.2641 49.7194 53.4494 49.9047 53.6315 50.0868L54.6849 51.1403C54.854 51.3093 55.0198 51.4751 55.1824 51.6377L57.3771 53.8324C57.7673 54.2226 58.1282 54.5835 58.4598 54.9151M50.1799 54.9151C50.1799 59.488 53.887 63.195 58.4598 63.195M50.1799 54.9151C50.1799 55.468 50.2341 56.0082 50.3375 56.5307L58.4598 54.9151M58.4598 63.195C60.7462 63.195 62.8162 62.2682 64.3146 60.7699M58.4598 63.195C57.337 63.195 56.2664 62.9715 55.29 62.5665L58.4598 54.9151M64.3146 60.7699L63.8441 60.2994C63.6555 60.1108 63.4702 59.9255 63.2881 59.7434L62.2347 58.69C62.0656 58.5209 61.8998 58.3551 61.7372 58.1925L59.5425 55.9978C59.1524 55.6077 58.7914 55.2468 58.4598 54.9151" stroke="#8BAA36" stroke-width="2" stroke-linecap="round"/>
</svg>
