<svg width="93" height="97" viewBox="0 0 93 97" fill="none" xmlns="http://www.w3.org/2000/svg">
<rect x="0.5" y="0.5" width="92" height="96" rx="7.5" fill="#EBF3D4" stroke="#8BAA36"/>
<path fill-rule="evenodd" clip-rule="evenodd" d="M39.0691 43.1463C48.5409 37.2383 61.0087 40.1274 66.9167 49.5993L66.45 50.3135C65.3268 51.9555 63.9665 53.4241 62.412 54.6707C54.4663 61.0428 43.1802 60.4371 35.9591 53.6677C34.8013 56.6529 31.797 58.667 28.4351 58.4231L28.125 58.3941V57.868C28.125 54.7142 29.5057 51.8334 31.743 49.8622C29.6632 48.2485 28.2934 45.7787 28.1395 43.0017L28.125 42.4776V40.8044L28.5482 40.8214C31.7274 41.0275 34.4494 42.9765 35.7344 45.7486C36.7477 44.77 37.8662 43.8965 39.0691 43.1463ZM50.6594 59.0966L50.928 59.0835C49.4396 60.5657 47.6151 61.6915 45.5385 62.3012C43.9252 62.7749 42.3014 62.8954 40.7355 62.706C41.5001 61.1529 42.0931 59.4927 42.4953 57.7628C45.098 58.7662 47.8827 59.2171 50.6594 59.0966ZM52.6521 40.0038L52.8634 40.3219C48.8625 39.6998 44.6593 40.2705 40.8257 42.1668C39.6542 39.6914 38.0828 37.5336 36.232 35.7703C37.0306 35.3263 37.8857 34.9637 38.7885 34.6987C44.1168 33.1343 49.5589 35.422 52.6521 40.0038Z" stroke="#8BAA36" stroke-width="2" stroke-linecap="round"/>
<path fill-rule="evenodd" clip-rule="evenodd" d="M57.7295 47.6832V47.479V47.6832Z" stroke="#8BAA36" stroke-width="2" stroke-linecap="round" stroke-linejoin="round"/>
</svg>
