<svg width="112" height="112" viewBox="0 0 112 112" fill="none" xmlns="http://www.w3.org/2000/svg">
<rect x="0.5" y="0.5" width="111" height="111" rx="7.5" fill="white" fill-opacity="0.5" stroke="#8BAA36"/>
<path d="M62.9998 37.3334L62.6406 37.4532C58.6748 38.7751 55.9998 42.4864 55.9998 46.6667V40.7387C55.9998 37.4019 53.6446 34.529 50.3726 33.8746L44.3331 32.6667V33.9281C44.3331 37.2649 46.6884 40.1378 49.9603 40.7922L55.9998 42.0001M64.9634 43.747C67.4065 43.5798 69.7966 44.5128 71.4802 46.291C73.0587 47.9582 73.9491 50.152 73.9876 52.4349L73.9813 52.963L73.9211 54.4367C73.7926 57.5852 73.2861 60.7054 72.4135 63.7303L72.0691 64.86L71.2124 67.5262C70.1575 70.8092 67.5376 73.3517 64.2245 74.3079C62.8178 74.7138 60.901 74.6264 58.4741 74.0456L57.7996 73.8749C56.6199 73.561 55.3786 73.561 54.1989 73.875C51.4509 74.6064 49.3097 74.7507 47.7752 74.3079C44.462 73.3517 41.8422 70.8092 40.7873 67.5262L39.9306 64.86C38.8461 61.485 38.2231 57.9787 38.0785 54.4367L38.0184 52.963C37.9175 50.4927 38.8195 48.0864 40.5194 46.291C42.203 44.5128 44.5931 43.5798 47.0362 43.747L48.4784 43.8458C50.5521 43.9878 53.0597 45.5096 56.0014 48.4112C58.7241 45.6459 61.0489 44.1418 62.9757 43.8988L63.5212 43.8458L64.9634 43.747Z" stroke="#8BAA36" stroke-width="2" stroke-linecap="round"/>
</svg>
