<svg width="60" height="60" viewBox="0 0 60 60" fill="none" xmlns="http://www.w3.org/2000/svg">
<rect x="0.5" y="0.5" width="59" height="59" rx="7.5" fill="#EBF3D4" stroke="#8BAA36"/>
<path d="M34.0002 19.3334L33.7949 19.4018C31.5287 20.1572 30.0002 22.278 30.0002 24.6667V21.2793C30.0002 19.3726 28.6543 17.7309 26.7846 17.357L23.3335 16.6667V17.3875C23.3335 19.2943 24.6793 20.9359 26.549 21.3099L30.0002 22.0001M35.1222 22.9983C36.5183 22.9028 37.884 23.4359 38.8461 24.452C39.7481 25.4047 40.2569 26.6583 40.2789 27.9628L40.2753 28.2646L40.2409 29.1067C40.1675 30.9058 39.878 32.6888 39.3794 34.4173L39.1826 35.0629L38.6931 36.5864C38.0903 38.4624 36.5932 39.9153 34.7 40.4617C33.8961 40.6936 32.8008 40.6437 31.414 40.3118L31.0286 40.2143C30.3545 40.0349 29.6452 40.0349 28.9711 40.2143C27.4008 40.6323 26.1772 40.7147 25.3004 40.4617C23.4072 39.9153 21.9101 38.4624 21.3073 36.5864L20.8177 35.0629C20.198 33.1343 19.842 31.1307 19.7594 29.1067L19.7251 28.2646C19.6674 26.853 20.1829 25.478 21.1542 24.452C22.1163 23.4359 23.4821 22.9028 24.8781 22.9983L25.7022 23.0548C26.8872 23.1359 28.3201 24.0055 30.0011 25.6636C31.5569 24.0834 32.8853 23.2239 33.9864 23.0851L34.2981 23.0548L35.1222 22.9983Z" stroke="#8BAA36" stroke-width="1.5" stroke-linecap="round"/>
</svg>
