<svg width="128" height="128" viewBox="0 0 128 128" fill="none" xmlns="http://www.w3.org/2000/svg">
<rect x="0.5" y="0.5" width="127" height="127" rx="7.5" fill="white" fill-opacity="0.5" stroke="#8BAA36"/>
<path d="M59 49C68.665 49 76.5 56.835 76.5 66.5C76.5 67.4365 76.4264 68.3558 76.2848 69.2524L68.2893 61.2595C65.6392 63.9097 64 67.5708 64 71.6149C64 75.4581 65.4805 78.9556 67.9022 81.5681C65.295 83.1135 62.251 84 59 84C49.335 84 41.5 76.165 41.5 66.5C41.5 56.835 49.335 49 59 49ZM59 49L52.5291 47.7058C49.0234 47.0047 46.5 43.9266 46.5 40.3515V39L52.9709 40.2942C56.4766 40.9953 59 44.0734 59 47.6485V51.5M59 49V51.5M59 51.5C59 48.4357 60.7313 45.6343 63.4721 44.2639L64 44M71.4756 64.6863L71.347 64.5576C70.3914 63.6021 69.3722 62.5829 68.2893 61.5C65.6392 64.1502 64 67.8113 64 71.8553C64 72.8332 64.0958 73.7887 64.2787 74.713C64.467 75.6654 64.7478 76.5846 65.1111 77.4609C65.8534 79.2509 66.9404 80.8617 68.2893 82.2107C69.6383 83.5596 71.2491 84.6466 73.0391 85.3889C73.9154 85.7522 74.8346 86.033 75.787 86.2213C76.7113 86.4042 77.6668 86.5 78.6447 86.5C82.6887 86.5 86.3498 84.8608 89 82.2107C87.9171 81.1278 86.8979 80.1086 85.9424 79.153L85.8137 79.0244M71.4756 64.6863C69.6409 66.521 68.506 69.0556 68.506 71.8553M71.4756 64.6863L72.0516 65.2623C72.2826 65.4932 72.5095 65.7202 72.7324 65.9431L74.0224 67.2331C74.2294 67.4401 74.4325 67.6431 74.6315 67.8422L77.3189 70.5296C77.7966 71.0073 78.2386 71.4492 78.6447 71.8553M68.506 71.8553C68.506 77.4547 73.0453 81.994 78.6447 81.994M68.506 71.8553C68.506 72.5323 68.5724 73.1938 68.6989 73.8336L78.6447 71.8553M78.6447 81.994C81.4444 81.994 83.979 80.8591 85.8137 79.0244M78.6447 81.994C77.2698 81.994 75.9588 81.7203 74.7633 81.2244L78.6447 71.8553M85.8137 79.0244L85.2377 78.4484C85.0068 78.2174 84.7798 77.9905 84.5569 77.7676L83.2669 76.4776C83.0599 76.2706 82.8569 76.0675 82.6578 75.8685L79.9704 73.1811C79.4927 72.7034 79.0508 72.2614 78.6447 71.8553" stroke="#8BAA36" stroke-width="2" stroke-linecap="round"/>
</svg>
