<svg width="664" height="332" viewBox="0 0 664 332" fill="none" xmlns="http://www.w3.org/2000/svg">
<rect width="664" height="332" rx="8" fill="#D9D9D9"/>
<path d="M364 154V141.976C364 139.858 363.16 137.827 361.665 136.328C360.17 134.828 358.142 133.982 356.024 133.976L344 133.94M364 178V190C364 192.122 363.157 194.157 361.657 195.657C360.157 197.157 358.122 198 356 198H344M320 133.94L307.976 133.98C305.858 133.986 303.83 134.832 302.335 136.332C300.84 137.831 300 139.862 300 141.98V154M320 198H308C305.878 198 303.843 197.157 302.343 195.657C300.843 194.157 300 192.122 300 190V178" stroke="#C4C4C4" stroke-width="2" stroke-linecap="round" stroke-linejoin="round"/>
<path d="M331.75 173.219C333.391 173.219 334.785 172.645 335.934 171.497C337.082 170.348 337.656 168.953 337.656 167.312C337.656 165.672 337.082 164.277 335.934 163.128C334.785 161.98 333.391 161.406 331.75 161.406C330.109 161.406 328.715 161.98 327.566 163.128C326.418 164.277 325.844 165.672 325.844 167.312C325.844 168.953 326.418 170.348 327.566 171.497C328.715 172.645 330.109 173.219 331.75 173.219ZM321.25 177.812C320.528 177.812 319.91 177.556 319.397 177.042C318.882 176.528 318.625 175.909 318.625 175.188V159.438C318.625 158.716 318.882 158.098 319.397 157.584C319.91 157.07 320.528 156.812 321.25 156.812H325.384L327.812 154.188H335.688L338.116 156.812H342.25C342.972 156.812 343.59 157.07 344.105 157.584C344.618 158.098 344.875 158.716 344.875 159.438V175.188C344.875 175.909 344.618 176.528 344.105 177.042C343.59 177.556 342.972 177.812 342.25 177.812H321.25Z" fill="#C4C4C4"/>
</svg>
